<svg width="151" height="21" viewBox="0 0 151 21" fill="none" xmlns="http://www.w3.org/2000/svg" >
<path d="M3.752 13.888L0.264 10.304L3.752 6.72H6.568L3.08 10.304L6.568 13.888H3.752ZM142.057 0.848L137.737 18.896H135.545L139.865 0.848H142.057ZM144.158 6.72H146.99L150.478 10.304L146.99 13.888H144.158L147.662 10.304L144.158 6.72Z" fill="#BA208F"/>
<path d="M11.6878 8.416C11.9758 8.01067 12.3704 7.67467 12.8718 7.408C13.3838 7.13067 13.9651 6.992 14.6158 6.992C15.3731 6.992 16.0558 7.17867 16.6638 7.552C17.2824 7.92533 17.7678 8.45867 18.1198 9.152C18.4824 9.83467 18.6638 10.6293 18.6638 11.536C18.6638 12.4427 18.4824 13.248 18.1198 13.952C17.7678 14.6453 17.2824 15.184 16.6638 15.568C16.0558 15.952 15.3731 16.144 14.6158 16.144C13.9651 16.144 13.3891 16.0107 12.8878 15.744C12.3971 15.4773 11.9971 15.1413 11.6878 14.736V20.224H9.44775V7.136H11.6878V8.416ZM16.3758 11.536C16.3758 11.0027 16.2638 10.544 16.0398 10.16C15.8264 9.76533 15.5384 9.46667 15.1758 9.264C14.8238 9.06133 14.4398 8.96 14.0238 8.96C13.6184 8.96 13.2344 9.06667 12.8718 9.28C12.5198 9.48267 12.2318 9.78133 12.0078 10.176C11.7944 10.5707 11.6878 11.0347 11.6878 11.568C11.6878 12.1013 11.7944 12.5653 12.0078 12.96C12.2318 13.3547 12.5198 13.6587 12.8718 13.872C13.2344 14.0747 13.6184 14.176 14.0238 14.176C14.4398 14.176 14.8238 14.0693 15.1758 13.856C15.5384 13.6427 15.8264 13.3387 16.0398 12.944C16.2638 12.5493 16.3758 12.08 16.3758 11.536ZM19.7155 11.536C19.7155 10.64 19.8915 9.84533 20.2435 9.152C20.6062 8.45867 21.0915 7.92533 21.6995 7.552C22.3182 7.17867 23.0062 6.992 23.7635 6.992C24.4248 6.992 25.0008 7.12533 25.4915 7.392C25.9928 7.65867 26.3928 7.99467 26.6915 8.4V7.136H28.9475V16H26.6915V14.704C26.4035 15.12 26.0035 15.4667 25.4915 15.744C24.9902 16.0107 24.4088 16.144 23.7475 16.144C23.0008 16.144 22.3182 15.952 21.6995 15.568C21.0915 15.184 20.6062 14.6453 20.2435 13.952C19.8915 13.248 19.7155 12.4427 19.7155 11.536ZM26.6915 11.568C26.6915 11.024 26.5848 10.56 26.3715 10.176C26.1582 9.78133 25.8702 9.48267 25.5075 9.28C25.1448 9.06667 24.7555 8.96 24.3395 8.96C23.9235 8.96 23.5395 9.06133 23.1875 9.264C22.8355 9.46667 22.5475 9.76533 22.3235 10.16C22.1102 10.544 22.0035 11.0027 22.0035 11.536C22.0035 12.0693 22.1102 12.5387 22.3235 12.944C22.5475 13.3387 22.8355 13.6427 23.1875 13.856C23.5502 14.0693 23.9342 14.176 24.3395 14.176C24.7555 14.176 25.1448 14.0747 25.5075 13.872C25.8702 13.6587 26.1582 13.36 26.3715 12.976C26.5848 12.5813 26.6915 12.112 26.6915 11.568ZM33.7433 8.976V13.264C33.7433 13.5627 33.8126 13.7813 33.9513 13.92C34.1006 14.048 34.3459 14.112 34.6873 14.112H35.7273V16H34.3193C32.4313 16 31.4873 15.0827 31.4873 13.248V8.976H30.4313V7.136H31.4873V4.944H33.7433V7.136H35.7273V8.976H33.7433ZM39.5784 8.512C39.8664 8.04267 40.2397 7.67467 40.6984 7.408C41.1677 7.14133 41.701 7.008 42.2984 7.008V9.36H41.7064C41.0024 9.36 40.469 9.52533 40.1064 9.856C39.7544 10.1867 39.5784 10.7627 39.5784 11.584V16H37.3384V7.136H39.5784V8.512ZM44.9431 6.08C44.5485 6.08 44.2178 5.95733 43.9511 5.712C43.6951 5.456 43.5671 5.14133 43.5671 4.768C43.5671 4.39467 43.6951 4.08533 43.9511 3.84C44.2178 3.584 44.5485 3.456 44.9431 3.456C45.3378 3.456 45.6631 3.584 45.9191 3.84C46.1858 4.08533 46.3191 4.39467 46.3191 4.768C46.3191 5.14133 46.1858 5.456 45.9191 5.712C45.6631 5.95733 45.3378 6.08 44.9431 6.08ZM46.0471 7.136V16H43.8071V7.136H46.0471ZM47.6842 11.568C47.6842 10.6507 47.8709 9.85067 48.2443 9.168C48.6176 8.47467 49.1349 7.94133 49.7963 7.568C50.4576 7.184 51.2149 6.992 52.0683 6.992C53.1669 6.992 54.0736 7.26933 54.7883 7.824C55.5136 8.368 55.9989 9.136 56.2443 10.128H53.8283C53.7003 9.744 53.4816 9.44533 53.1723 9.232C52.8736 9.008 52.5003 8.896 52.0523 8.896C51.4123 8.896 50.9056 9.13067 50.5323 9.6C50.1589 10.0587 49.9723 10.7147 49.9723 11.568C49.9723 12.4107 50.1589 13.0667 50.5323 13.536C50.9056 13.9947 51.4123 14.224 52.0523 14.224C52.9589 14.224 53.5509 13.8187 53.8283 13.008H56.2443C55.9989 13.968 55.5136 14.7307 54.7883 15.296C54.0629 15.8613 53.1563 16.144 52.0683 16.144C51.2149 16.144 50.4576 15.9573 49.7963 15.584C49.1349 15.2 48.6176 14.6667 48.2443 13.984C47.8709 13.2907 47.6842 12.4853 47.6842 11.568ZM59.0213 6.08C58.6266 6.08 58.2959 5.95733 58.0293 5.712C57.7733 5.456 57.6453 5.14133 57.6453 4.768C57.6453 4.39467 57.7733 4.08533 58.0293 3.84C58.2959 3.584 58.6266 3.456 59.0213 3.456C59.4159 3.456 59.7413 3.584 59.9973 3.84C60.2639 4.08533 60.3973 4.39467 60.3973 4.768C60.3973 5.14133 60.2639 5.456 59.9973 5.712C59.7413 5.95733 59.4159 6.08 59.0213 6.08ZM60.1253 7.136V16H57.8853V7.136H60.1253ZM61.7624 11.536C61.7624 10.64 61.9384 9.84533 62.2904 9.152C62.653 8.45867 63.1384 7.92533 63.7464 7.552C64.365 7.17867 65.053 6.992 65.8104 6.992C66.4717 6.992 67.0477 7.12533 67.5384 7.392C68.0397 7.65867 68.4397 7.99467 68.7384 8.4V7.136H70.9944V16H68.7384V14.704C68.4504 15.12 68.0504 15.4667 67.5384 15.744C67.037 16.0107 66.4557 16.144 65.7944 16.144C65.0477 16.144 64.365 15.952 63.7464 15.568C63.1384 15.184 62.653 14.6453 62.2904 13.952C61.9384 13.248 61.7624 12.4427 61.7624 11.536ZM68.7384 11.568C68.7384 11.024 68.6317 10.56 68.4184 10.176C68.205 9.78133 67.917 9.48267 67.5544 9.28C67.1917 9.06667 66.8024 8.96 66.3864 8.96C65.9704 8.96 65.5864 9.06133 65.2344 9.264C64.8824 9.46667 64.5944 9.76533 64.3704 10.16C64.157 10.544 64.0504 11.0027 64.0504 11.536C64.0504 12.0693 64.157 12.5387 64.3704 12.944C64.5944 13.3387 64.8824 13.6427 65.2344 13.856C65.597 14.0693 65.981 14.176 66.3864 14.176C66.8024 14.176 67.1917 14.0747 67.5544 13.872C67.917 13.6587 68.205 13.36 68.4184 12.976C68.6317 12.5813 68.7384 12.112 68.7384 11.568ZM84.1901 7.008C85.2781 7.008 86.1528 7.344 86.8141 8.016C87.4861 8.67733 87.8221 9.60533 87.8221 10.8V16H85.5821V11.104C85.5821 10.4107 85.4061 9.88267 85.0541 9.52C84.7021 9.14667 84.2221 8.96 83.6141 8.96C83.0061 8.96 82.5208 9.14667 82.1581 9.52C81.8061 9.88267 81.6301 10.4107 81.6301 11.104V16H79.3901V11.104C79.3901 10.4107 79.2141 9.88267 78.8621 9.52C78.5101 9.14667 78.0301 8.96 77.4221 8.96C76.8035 8.96 76.3128 9.14667 75.9501 9.52C75.5981 9.88267 75.4221 10.4107 75.4221 11.104V16H73.1821V7.136H75.4221V8.208C75.7101 7.83467 76.0781 7.54133 76.5261 7.328C76.9848 7.11467 77.4861 7.008 78.0301 7.008C78.7235 7.008 79.3421 7.15733 79.8861 7.456C80.4301 7.744 80.8515 8.16 81.1501 8.704C81.4381 8.192 81.8541 7.78133 82.3981 7.472C82.9528 7.16267 83.5501 7.008 84.1901 7.008ZM93.8838 16.144C93.0304 16.144 92.2624 15.9573 91.5798 15.584C90.8971 15.2 90.3584 14.6613 89.9638 13.968C89.5798 13.2747 89.3878 12.4747 89.3878 11.568C89.3878 10.6613 89.5851 9.86133 89.9798 9.168C90.3851 8.47467 90.9344 7.94133 91.6278 7.568C92.3211 7.184 93.0944 6.992 93.9478 6.992C94.8011 6.992 95.5744 7.184 96.2678 7.568C96.9611 7.94133 97.5051 8.47467 97.8998 9.168C98.3051 9.86133 98.5078 10.6613 98.5078 11.568C98.5078 12.4747 98.2998 13.2747 97.8837 13.968C97.4784 14.6613 96.9238 15.2 96.2198 15.584C95.5264 15.9573 94.7478 16.144 93.8838 16.144ZM93.8838 14.192C94.2891 14.192 94.6678 14.096 95.0198 13.904C95.3824 13.7013 95.6704 13.4027 95.8838 13.008C96.0971 12.6133 96.2038 12.1333 96.2038 11.568C96.2038 10.7253 95.9798 10.08 95.5318 9.632C95.0944 9.17333 94.5558 8.944 93.9158 8.944C93.2758 8.944 92.7371 9.17333 92.2998 9.632C91.8731 10.08 91.6598 10.7253 91.6598 11.568C91.6598 12.4107 91.8678 13.0613 92.2838 13.52C92.7104 13.968 93.2438 14.192 93.8838 14.192ZM102.391 8.512C102.679 8.04267 103.052 7.67467 103.511 7.408C103.98 7.14133 104.514 7.008 105.111 7.008V9.36H104.519C103.815 9.36 103.282 9.52533 102.919 9.856C102.567 10.1867 102.391 10.7627 102.391 11.584V16H100.151V7.136H102.391V8.512ZM106.044 11.536C106.044 10.64 106.22 9.84533 106.572 9.152C106.934 8.45867 107.42 7.92533 108.028 7.552C108.646 7.17867 109.334 6.992 110.092 6.992C110.753 6.992 111.329 7.12533 111.82 7.392C112.321 7.65867 112.721 7.99467 113.02 8.4V7.136H115.276V16H113.02V14.704C112.732 15.12 112.332 15.4667 111.82 15.744C111.318 16.0107 110.737 16.144 110.076 16.144C109.329 16.144 108.646 15.952 108.028 15.568C107.42 15.184 106.934 14.6453 106.572 13.952C106.22 13.248 106.044 12.4427 106.044 11.536ZM113.02 11.568C113.02 11.024 112.913 10.56 112.7 10.176C112.486 9.78133 112.198 9.48267 111.836 9.28C111.473 9.06667 111.084 8.96 110.668 8.96C110.252 8.96 109.868 9.06133 109.516 9.264C109.164 9.46667 108.876 9.76533 108.652 10.16C108.438 10.544 108.332 11.0027 108.332 11.536C108.332 12.0693 108.438 12.5387 108.652 12.944C108.876 13.3387 109.164 13.6427 109.516 13.856C109.878 14.0693 110.262 14.176 110.668 14.176C111.084 14.176 111.473 14.0747 111.836 13.872C112.198 13.6587 112.486 13.36 112.7 12.976C112.913 12.5813 113.02 12.112 113.02 11.568ZM125.703 11.376C125.703 11.696 125.682 11.984 125.639 12.24H119.159C119.213 12.88 119.437 13.3813 119.831 13.744C120.226 14.1067 120.711 14.288 121.287 14.288C122.119 14.288 122.711 13.9307 123.063 13.216H125.479C125.223 14.0693 124.733 14.7733 124.007 15.328C123.282 15.872 122.391 16.144 121.335 16.144C120.482 16.144 119.714 15.9573 119.031 15.584C118.359 15.2 117.831 14.6613 117.447 13.968C117.074 13.2747 116.887 12.4747 116.887 11.568C116.887 10.6507 117.074 9.84533 117.447 9.152C117.821 8.45867 118.343 7.92533 119.015 7.552C119.687 7.17867 120.461 6.992 121.335 6.992C122.178 6.992 122.93 7.17333 123.591 7.536C124.263 7.89867 124.781 8.416 125.143 9.088C125.517 9.74933 125.703 10.512 125.703 11.376ZM123.383 10.736C123.373 10.16 123.165 9.70133 122.759 9.36C122.354 9.008 121.858 8.832 121.271 8.832C120.717 8.832 120.247 9.00267 119.863 9.344C119.49 9.67467 119.261 10.1387 119.175 10.736H123.383ZM130.73 16.144C130.005 16.144 129.354 16.016 128.778 15.76C128.202 15.4933 127.744 15.136 127.402 14.688C127.072 14.24 126.89 13.744 126.858 13.2H129.114C129.157 13.5413 129.322 13.824 129.61 14.048C129.909 14.272 130.277 14.384 130.714 14.384C131.141 14.384 131.472 14.2987 131.706 14.128C131.952 13.9573 132.074 13.7387 132.074 13.472C132.074 13.184 131.925 12.9707 131.626 12.832C131.338 12.6827 130.874 12.5227 130.234 12.352C129.573 12.192 129.029 12.0267 128.602 11.856C128.186 11.6853 127.824 11.424 127.514 11.072C127.216 10.72 127.066 10.2453 127.066 9.648C127.066 9.15733 127.205 8.70933 127.482 8.304C127.77 7.89867 128.176 7.57867 128.698 7.344C129.232 7.10933 129.856 6.992 130.57 6.992C131.626 6.992 132.469 7.25867 133.098 7.792C133.728 8.31467 134.074 9.024 134.138 9.92H131.994C131.962 9.568 131.813 9.29067 131.546 9.088C131.29 8.87467 130.944 8.768 130.506 8.768C130.101 8.768 129.786 8.84267 129.562 8.992C129.349 9.14133 129.242 9.34933 129.242 9.616C129.242 9.91467 129.392 10.144 129.69 10.304C129.989 10.4533 130.453 10.608 131.082 10.768C131.722 10.928 132.25 11.0933 132.666 11.264C133.082 11.4347 133.44 11.7013 133.738 12.064C134.048 12.416 134.208 12.8853 134.218 13.472C134.218 13.984 134.074 14.4427 133.786 14.848C133.509 15.2533 133.104 15.5733 132.57 15.808C132.048 16.032 131.434 16.144 130.73 16.144Z" fill="currentColor"/>
</svg>
